<?xml version="1.0"?><svg width="938.35168" height="570" xmlns="http://www.w3.org/2000/svg">
 <title>fence</title>

 <g>
  <title>Layer 1</title>
  <g opacity="0.25" id="layer1">
   <path fill="#7f3f00" fill-rule="nonzero" stroke-linecap="square" stroke-linejoin="bevel" stroke-miterlimit="4" stroke-dashoffset="2.99" id="rect3176" d="m68.054901,3l-30.704903,34.985199l0,53.548004l-23.934999,-0.349403l0,32.452202l23.934999,0l0,312.334l-23.934999,-0.350006l0,32.451996l23.934999,0l0,89.057037c24.391602,6.638 43.414398,5.25 59.881104,0l0,-89.057037l25.594894,0l0,89.057037c24.390999,6.638 43.414009,5.25 59.881004,0l-0.393005,-89.057037l23.585007,0l0,90.454987c24.391998,6.638 43.414993,5.25 59.880997,0l-0.480011,-90.454987l18.999023,0l0,89.057037c24.391998,6.638 43.414978,5.25 59.881989,0l0,-89.057037l13.277008,0l4.281006,0l-0.437012,89.057037c16.46701,5.25 35.53299,6.638 59.924988,0l0,-89.057037l23.322998,0l-0.47998,89.407013c16.466003,5.25 35.488983,6.637024 59.880981,0l0,-89.407013l24.372009,0l0,90.454987c24.390991,6.638 43.414001,5.25 59.880981,0l-0.480957,-90.454987l21.925964,0l0,90.324005c24.392029,6.638 43.458008,5.25 59.924988,0l0,-90.324005l19.305054,0l0,89.057037c24.391968,6.638 43.457947,5.25 59.924988,0l0,-89.057037l23.191956,0l0,89.057037c24.392029,6.638 43.458008,5.25 59.925049,0l-0.437012,-89.057037l17.864014,0l0,89.057037c24.391968,6.638 43.414978,5.25 59.880981,0l0,-89.057037l23.891968,0l0,-32.451996l-23.891968,0.218994l0,-312.202988l23.891968,0l0,-32.452202l-23.891968,0.349403l0,-53.548004l-29.176025,-34.985199l-30.704956,34.985199l0,54.334198l-17.776001,0.262001l0.348999,-54.596199l-29.220032,-34.985199l-30.705017,34.985199l0,55.426102l-23.191956,0.305702l0,-55.731804l-29.220032,-34.985199l-30.704956,34.985199l0,55.644501l-19.305054,-0.218399l0,-54.159401l-29.219971,-35.02895l-30.705017,35.02895l0,53.460503l-21.70697,-0.2183l0.261963,-53.111202l-29.219971,-35.02891l-30.661011,35.02891l0,52.455997l-24.372009,-0.262001l0,-53.198597l-30.66098,-35.02888l-29.220001,35.02888l0.261993,52.892803l-23.105011,0.087395l0,-53.373299l-30.704987,-34.985199l-29.220001,34.985199l0.348999,53.591698l-17.470001,0.087303l0,-53.679001l-29.177002,-34.985199l-30.704987,34.985199l0,53.8974l-18.781006,0.087303l0.261993,-52.587002l-29.175995,-35.02891l-30.705002,35.02891l0,52.849102l-23.498001,0.087395l0.306,-54.334198l-29.175995,-34.985189l-30.705009,34.985189l0,54.552498l-9.477997,0.043701l-16.116898,-0.218399l0,-54.3778l-29.176201,-34.985199zm29.176201,120.636002l25.594894,0l0,215.240005l0,98.27298l-25.594894,-0.349976l0,-313.16301l0,0l0,0zm84.951897,0l23.716003,0l0,314.647995l-23.759995,-0.304993l-0.786011,-172.087006l0.830002,-142.255997l0,0l0,0zm83.160995,0l18.955017,0l0,314.081009l-19.174011,0.217987l-0.699005,-130.725006l0.917999,-183.57399l0,0zm78.837006,0l17.644989,0l0.874023,142.255997l-0.830017,170.950989l-17.688995,0.219025l0,-313.42601l0,0l0,0zm77.04599,0l23.279999,0l0.917023,182.568985l-0.699005,129.721008l-23.498016,0.261993l0,-97.311981l0,-215.240005zm82.723999,0l24.372009,0l0,312.202988l-24.372009,-0.087982l0,-312.115005l0,0zm83.81604,0l21.881958,0l0,312.551987l-22.099976,-0.086975l-0.699036,-128.891022l0.917053,-183.57399l0,0zm81.806946,0l19.305054,0l0,200.783005l0,112.074982l-19.305054,-0.087982l0,-312.770004l0,0zm79.230042,0l23.191956,0l0,215.240005l0,97.923004l-23.191956,-0.087006l0,-215.501999l0,-97.574005l0,0zm82.592957,0l17.95105,0l0,313.031998l-17.994995,0.261993l-0.830017,-171.037994l0.873962,-142.255997l0,0l0,0z"/>
  </g>
 </g>
</svg>